<svg xmlns="http://www.w3.org/2000/svg" width="18.43" height="17.115" viewBox="-0.586 -15.935 18.43 17.115"><symbol id="STIXTwoMathRegular_3354" viewBox="0 -31.524 6.48 51.216"><path d="M 3.78 -3.576 L 3.78 -3.576 L 4.368 -4.584 Q 4.608 -5.016 4.98 -5.382 Q 5.352 -5.748 5.88 -5.748 Q 6.228 -5.748 6.354 -5.61 Q 6.48 -5.472 6.48 -5.22 Q 6.48 -5.004 6.324 -4.83 Q 6.168 -4.656 5.928 -4.656 Q 5.784 -4.656 5.604 -4.716 Q 5.424 -4.776 5.304 -4.776 Q 5.1 -4.776 4.956 -4.65 Q 4.812 -4.524 4.656 -4.272 L 3.924 -3.108 L 4.176 -2.292 Q 4.428 -1.464 4.638 -1.104 Q 4.848 -0.744 5.124 -0.744 Q 5.364 -0.744 5.556 -0.918 Q 5.748 -1.092 5.988 -1.416 L 6.24 -1.224 Q 6.072 -0.96 5.838 -0.648 Q 5.604 -0.336 5.292 -0.108 Q 4.98 0.12 4.572 0.12 Q 4.164 0.12 3.942 -0.204 Q 3.72 -0.528 3.588 -1.116 L 3.288 -2.328 L 3.24 -2.328 L 2.472 -1.08 Q 2.184 -0.612 1.848 -0.252 Q 1.512 0.108 0.972 0.108 Q 0.588 0.108 0.432 -0.072 Q 0.276 -0.252 0.276 -0.48 Q 0.276 -0.66 0.402 -0.822 Q 0.528 -0.984 0.744 -0.984 Q 0.948 -0.984 1.146 -0.906 Q 1.344 -0.828 1.5 -0.828 Q 1.524 -0.828 1.608 -0.858 Q 1.692 -0.888 1.848 -1.032 Q 2.004 -1.176 2.232 -1.512 L 3.096 -2.772 L 2.76 -3.864 Q 2.604 -4.368 2.448 -4.656 Q 2.292 -4.944 2.064 -5.07 Q 1.836 -5.196 1.44 -5.184 Q 1.296 -5.184 1.182 -5.166 Q 1.068 -5.148 1.068 -5.148 L 1.068 -5.508 L 2.736 -5.7 L 2.916 -5.7 Q 3.132 -5.448 3.306 -5.064 Q 3.48 -4.68 3.6 -4.188 L 3.744 -3.576 Z " /></symbol><use href="#STIXTwoMathRegular_3354" x="0" y="-47.286" width="9.72" height="76.824" fill="#99c3ff" /><symbol id="STIXTwoMathRegular_4276" viewBox="0 -31.524 5.568 51.216"><path d="M 1.008 -6.24 L 1.008 -6.24 L 0.66 -6.408 Q 1.02 -7.224 1.614 -7.638 Q 2.208 -8.052 2.952 -8.052 Q 3.912 -8.052 4.5 -7.584 Q 5.088 -7.116 5.088 -6.372 Q 5.088 -5.724 4.692 -5.328 Q 4.296 -4.932 3.708 -4.548 L 3.708 -4.488 Q 4.212 -4.356 4.638 -4.092 Q 5.064 -3.828 5.316 -3.414 Q 5.568 -3 5.568 -2.412 Q 5.568 -1.752 5.28 -1.266 Q 4.992 -0.78 4.5 -0.462 Q 4.008 -0.144 3.378 0.006 Q 2.748 0.156 2.064 0.156 Q 1.476 0.156 1.17 0.054 Q 0.864 -0.048 0.75 -0.216 Q 0.636 -0.384 0.636 -0.552 Q 0.636 -0.756 0.756 -0.954 Q 0.876 -1.152 1.164 -1.152 Q 1.284 -1.152 1.41 -1.086 Q 1.536 -1.02 1.872 -0.828 Q 2.148 -0.696 2.31 -0.624 Q 2.472 -0.552 2.598 -0.528 Q 2.724 -0.504 2.892 -0.504 Q 3.252 -0.504 3.606 -0.636 Q 3.96 -0.768 4.2 -1.11 Q 4.44 -1.452 4.44 -2.076 Q 4.44 -2.628 4.134 -3.024 Q 3.828 -3.42 3.312 -3.642 Q 2.796 -3.864 2.172 -3.864 L 1.908 -3.864 L 1.908 -4.428 L 2.16 -4.428 Q 2.592 -4.428 3 -4.626 Q 3.408 -4.824 3.672 -5.19 Q 3.936 -5.556 3.936 -6.06 Q 3.936 -6.624 3.57 -6.912 Q 3.204 -7.2 2.64 -7.2 Q 1.596 -7.2 1.008 -6.24 Z " /></symbol><use href="#STIXTwoMathRegular_4276" x="10.242" y="-39.58" width="5.846" height="53.777" fill="#99c3ff" /></svg>
