<svg xmlns="http://www.w3.org/2000/svg" width="38.021" height="23.796" viewBox="-0.424 -12.88 38.021 23.796"><symbol id="STIXTwoMathRegular_268" viewBox="0 -31.524 9.948 51.216"><path d="M 2.22 -4.284 L 2.22 -4.284 L 2.22 -1.164 Q 2.22 -0.66 2.394 -0.504 Q 2.568 -0.348 3.12 -0.348 L 3.12 0 L 0.384 0 L 0.384 -0.348 Q 0.768 -0.348 0.942 -0.414 Q 1.116 -0.48 1.17 -0.666 Q 1.224 -0.852 1.224 -1.212 L 1.224 -4.572 Q 1.224 -4.896 1.098 -5.004 Q 0.972 -5.112 0.72 -5.112 Q 0.588 -5.112 0.492 -5.1 Q 0.396 -5.088 0.396 -5.088 L 0.396 -5.436 L 1.896 -5.784 L 2.184 -5.784 L 2.184 -4.812 L 2.232 -4.812 Q 2.724 -5.232 3.18 -5.526 Q 3.636 -5.82 4.248 -5.82 Q 4.764 -5.82 5.082 -5.538 Q 5.4 -5.256 5.58 -4.824 L 5.628 -4.824 Q 6.12 -5.316 6.588 -5.568 Q 7.056 -5.82 7.536 -5.82 Q 8.244 -5.82 8.664 -5.376 Q 9.084 -4.932 9.084 -3.84 L 9.084 -1.392 Q 9.084 -1.02 9.126 -0.786 Q 9.168 -0.552 9.354 -0.45 Q 9.54 -0.348 9.948 -0.348 L 9.948 0 L 7.236 0 L 7.236 -0.348 Q 7.644 -0.348 7.824 -0.456 Q 8.004 -0.564 8.046 -0.798 Q 8.088 -1.032 8.088 -1.392 L 8.088 -3.696 Q 8.088 -4.248 7.95 -4.536 Q 7.812 -4.824 7.578 -4.938 Q 7.344 -5.052 7.056 -5.052 Q 6.684 -5.052 6.33 -4.806 Q 5.976 -4.56 5.676 -4.308 L 5.676 -1.392 Q 5.676 -0.984 5.73 -0.756 Q 5.784 -0.528 5.976 -0.438 Q 6.168 -0.348 6.6 -0.348 L 6.6 0 L 3.756 0 L 3.756 -0.348 Q 4.188 -0.348 4.38 -0.432 Q 4.572 -0.516 4.626 -0.744 Q 4.68 -0.972 4.68 -1.392 L 4.68 -3.768 Q 4.68 -4.536 4.41 -4.794 Q 4.14 -5.052 3.72 -5.052 Q 3.252 -5.052 2.868 -4.788 Q 2.484 -4.524 2.22 -4.284 Z " /></symbol><use href="#STIXTwoMathRegular_268" x="0" y="-47.286" width="14.922" height="76.824" fill="#99c3ff" /><symbol id="STIXTwoMathRegular_255" viewBox="0 -31.524 5.712 51.216"><path d="M 3.696 -0.744 L 3.696 -0.744 L 3.648 -0.744 Q 3.228 -0.372 2.844 -0.144 Q 2.46 0.084 1.884 0.084 Q 1.188 0.084 0.822 -0.3 Q 0.456 -0.684 0.456 -1.26 Q 0.456 -1.74 0.678 -2.07 Q 0.9 -2.4 1.266 -2.628 Q 1.632 -2.856 2.058 -3.012 Q 2.484 -3.168 2.892 -3.276 Q 3.3 -3.384 3.612 -3.48 L 3.612 -4.008 Q 3.612 -4.788 3.342 -5.118 Q 3.072 -5.448 2.532 -5.448 Q 2.016 -5.448 1.872 -5.232 Q 1.728 -5.016 1.728 -4.476 Q 1.728 -3.924 1.2 -3.924 Q 1.02 -3.924 0.858 -4.062 Q 0.696 -4.2 0.696 -4.5 Q 0.696 -4.836 0.954 -5.136 Q 1.212 -5.436 1.686 -5.628 Q 2.16 -5.82 2.808 -5.82 Q 3.792 -5.82 4.2 -5.364 Q 4.608 -4.908 4.608 -3.972 L 4.608 -1.248 Q 4.608 -0.876 4.692 -0.768 Q 4.776 -0.66 4.968 -0.66 Q 5.136 -0.66 5.274 -0.744 Q 5.412 -0.828 5.532 -0.96 L 5.712 -0.768 Q 5.412 -0.336 5.142 -0.138 Q 4.872 0.06 4.416 0.06 Q 4.02 0.06 3.888 -0.144 Q 3.756 -0.348 3.696 -0.744 Z M 3.612 -1.104 L 3.612 -1.104 L 3.612 -3.084 Q 3.072 -2.952 2.592 -2.772 Q 2.112 -2.592 1.812 -2.304 Q 1.512 -2.016 1.512 -1.548 Q 1.512 -1.104 1.752 -0.84 Q 1.992 -0.576 2.376 -0.576 Q 2.976 -0.576 3.612 -1.104 Z " /></symbol><use href="#STIXTwoMathRegular_255" x="15.336" y="-47.286" width="8.568" height="76.824" fill="#99c3ff" /><symbol id="STIXTwoMathRegular_279" viewBox="-0.024 -31.524 5.808 51.216"><path d="M 5.784 0 L 5.784 0 L 3.276 0 L 3.276 -0.348 Q 3.588 -0.348 3.714 -0.402 Q 3.84 -0.456 3.84 -0.612 Q 3.84 -0.732 3.756 -0.864 L 3 -2.028 L 2.76 -2.448 L 2.712 -2.448 L 1.728 -1.032 Q 1.644 -0.888 1.542 -0.744 Q 1.44 -0.6 1.44 -0.528 Q 1.44 -0.432 1.56 -0.39 Q 1.68 -0.348 1.98 -0.348 L 1.98 0 L -0.024 0 L -0.024 -0.348 Q 0.288 -0.348 0.492 -0.474 Q 0.696 -0.6 0.996 -0.948 L 2.436 -2.82 L 1.188 -4.608 Q 0.984 -4.908 0.84 -5.064 Q 0.696 -5.22 0.54 -5.274 Q 0.384 -5.328 0.132 -5.328 L 0.132 -5.676 L 2.712 -5.676 L 2.712 -5.34 Q 2.136 -5.34 2.136 -5.064 Q 2.136 -4.92 2.298 -4.686 Q 2.46 -4.452 2.76 -3.948 L 3.048 -3.42 L 3.096 -3.42 L 3.66 -4.236 Q 3.9 -4.572 3.996 -4.74 Q 4.092 -4.908 4.092 -5.052 Q 4.092 -5.184 3.99 -5.262 Q 3.888 -5.34 3.6 -5.34 L 3.6 -5.676 L 5.58 -5.676 L 5.58 -5.328 Q 5.28 -5.328 5.052 -5.178 Q 4.824 -5.028 4.62 -4.764 L 3.348 -3.132 L 4.824 -1.044 Q 5.076 -0.684 5.262 -0.516 Q 5.448 -0.348 5.784 -0.348 Z " /></symbol><use href="#STIXTwoMathRegular_279" x="23.94" y="-47.286" width="8.712" height="76.824" fill="#99c3ff" /><symbol id="STIXTwoMathRegular_4450" viewBox="0 -31.524 7.224 51.216"><path d="M 4.236 -3.852 L 4.236 -3.852 L 4.86 -4.956 Q 5.148 -5.436 5.556 -5.82 Q 5.964 -6.204 6.552 -6.204 Q 6.936 -6.204 7.08 -6.054 Q 7.224 -5.904 7.224 -5.628 Q 7.224 -5.388 7.044 -5.184 Q 6.864 -4.98 6.612 -4.98 Q 6.492 -4.98 6.258 -5.052 Q 6.024 -5.124 5.928 -5.124 Q 5.664 -5.124 5.514 -4.986 Q 5.364 -4.848 5.208 -4.608 L 4.404 -3.3 L 4.704 -2.412 Q 4.98 -1.5 5.208 -1.158 Q 5.436 -0.816 5.724 -0.816 Q 5.964 -0.816 6.162 -1.014 Q 6.36 -1.212 6.636 -1.56 L 6.948 -1.32 Q 6.768 -1.044 6.528 -0.702 Q 6.288 -0.36 5.946 -0.12 Q 5.604 0.12 5.136 0.12 Q 4.62 0.12 4.368 -0.246 Q 4.116 -0.612 3.948 -1.308 L 3.684 -2.484 L 3.624 -2.484 L 2.772 -1.14 Q 2.448 -0.648 2.082 -0.264 Q 1.716 0.12 1.14 0.12 Q 0.708 0.12 0.534 -0.09 Q 0.36 -0.3 0.36 -0.528 Q 0.36 -0.732 0.504 -0.924 Q 0.648 -1.116 0.852 -1.116 Q 1.056 -1.116 1.32 -1.038 Q 1.584 -0.96 1.704 -0.96 Q 1.704 -0.96 1.704 -0.96 Q 1.74 -0.96 1.83 -0.99 Q 1.92 -1.02 2.076 -1.17 Q 2.232 -1.32 2.496 -1.68 L 3.432 -2.988 L 3.06 -4.176 Q 2.88 -4.728 2.7 -5.034 Q 2.52 -5.34 2.262 -5.46 Q 2.004 -5.58 1.596 -5.568 Q 1.464 -5.568 1.368 -5.562 Q 1.272 -5.556 1.272 -5.556 L 1.272 -6.012 L 3.12 -6.156 L 3.396 -6.156 Q 3.588 -5.844 3.75 -5.394 Q 3.912 -4.944 3.996 -4.62 L 4.164 -3.852 Z " /></symbol><use href="#STIXTwoMathRegular_4450" x="13.821" y="-23.31" width="7.585" height="53.777" fill="#99c3ff" /></svg>
